<?xml version="1.0" encoding="utf-8"?>
<!-- Generator: Adobe Illustrator 21.0.0, SVG Export Plug-In . SVG Version: 6.00 Build 0)  -->
<svg version="1.1" id="Layer_2" xmlns="http://www.w3.org/2000/svg" xmlns:xlink="http://www.w3.org/1999/xlink" x="0px" y="0px"
	 viewBox="0 0 270.5 270" style="enable-background:new 0 0 270.5 270;" xml:space="preserve">
<style type="text/css">
	.st0{fill:#ff971f;}
</style>
<g>
	<path class="st0" d="M247.6,141.7c-4.9,0-9.4,1.5-13.2,4.1l-23.2-23.2c2.6-3.8,4.1-8.3,4.1-13.2c0-13-10.6-23.6-23.6-23.6
		c-4.9,0-9.4,1.5-13.2,4.1l-23.2-23.2c2.6-3.8,4.1-8.3,4.1-13.2c0-13-10.6-23.6-23.6-23.6s-24,10.3-24,23.3c0,4.9,1.5,9.4,4.1,13.2
		L92.7,89.6c-3.8-2.6-8.3-4.1-13.2-4.1c-13,0-23.6,10.6-23.6,23.6c0,4.9,1.5,9.4,4.1,13.2l-23.2,23.2c-3.8-2.6-8.3-4.1-13.2-4.1
		C10.6,141.4,0,152,0,165s10.3,24,23.3,24s23.6-10.6,23.6-23.6c0-4.9-1.5-9.4-4.1-13.2L66,129c3.8,2.6,8.3,4.1,13.2,4.1
		s9.4-1.5,13.2-4.1l23.2,23.2c-2.6,3.8-4.1,8.3-4.1,13.2s1.5,9.4,4.1,13.2l-23.2,23.2c-3.8-2.6-8.3-4.1-13.2-4.1
		c-13,0-23.6,10.6-23.6,23.6s10.6,23.6,23.6,23.6s23.6-10.6,23.6-23.6c0-4.9-1.5-9.4-4.1-13.2l23.2-23.2c3.8,2.6,8.3,4.1,13.2,4.1
		s9.4-1.5,13.2-4.1l23.2,23.2c-2.6,3.8-4.1,8.3-4.1,13.2c0,13,10.6,23.6,23.6,23.6s23.6-10.6,23.6-23.6S204,197.7,191,197.7
		c-4.9,0-9.5,1.5-13.2,4.1l-23.2-23.2c2.6-3.8,4.1-8.3,4.1-13.2c0-13-10.6-23.6-23.6-23.6c-4.9,0-9.4,1.5-13.2,4.1l-23.2-23.2
		c2.6-3.8,4.1-8.3,4.1-13.2s-1.5-9.4-4.1-13.2l23.2-23.2c3.8,2.6,8.3,4.1,13.2,4.1s9.4-1.5,13.2-4.1l23.2,23.2
		c-2.6,3.8-4.1,8.3-4.1,13.2c0,13,10.6,23.6,23.6,23.6c4.9,0,9.4-1.5,13.2-4.1l23.2,23.2c-2.6,3.8-4.1,8.3-4.1,13.2
		c0,13,10.6,23.6,23.6,23.6s23.6-10.6,23.6-23.6S260.6,141.7,247.6,141.7z M23.3,180c-8.1,0-14.6-6.6-14.6-14.6s6.6-14.6,14.6-14.6
		s14.6,6.6,14.6,14.6S31.4,180,23.3,180z M64.8,109.3c0-8.1,6.6-14.6,14.6-14.6S94,101.3,94,109.3s-6.6,14.6-14.6,14.6
		S64.8,117.4,64.8,109.3z M79.4,236.1c-8.1,0-14.6-6.6-14.6-14.6s6.6-14.6,14.6-14.6S94,213.5,94,221.5S87.5,236.1,79.4,236.1z
		 M206.2,221.4c0,8.1-6.6,14.6-14.6,14.6s-14.6-6.6-14.6-14.6s6.6-14.6,14.6-14.6S206.2,213.4,206.2,221.4z M150.1,165.4
		c0,8.1-6.6,14.6-14.6,14.6s-14.6-6.6-14.6-14.6s6.6-14.6,14.6-14.6S150.1,157.3,150.1,165.4z M120.8,53.2c0-8.1,6.6-14.6,14.6-14.6
		S150,45.2,150,53.2c0,8.1-6.6,14.6-14.6,14.6S120.8,61.3,120.8,53.2z M176.9,109.3c0-8.1,6.6-14.6,14.6-14.6s14.6,6.6,14.6,14.6
		s-6.6,14.6-14.6,14.6S176.9,117.4,176.9,109.3z M247.6,180c-8.1,0-14.6-6.6-14.6-14.6s6.6-14.6,14.6-14.6c8.1,0,14.6,6.6,14.6,14.6
		S255.7,180,247.6,180z"/>
</g>
</svg>
