<?xml version="1.0" encoding="utf-8"?>
<!-- Generator: Adobe Illustrator 21.0.0, SVG Export Plug-In . SVG Version: 6.00 Build 0)  -->
<svg version="1.1" id="Layer_2" xmlns="http://www.w3.org/2000/svg" xmlns:xlink="http://www.w3.org/1999/xlink" x="0px" y="0px"
	 viewBox="0 0 278 278" style="enable-background:new 0 0 278 278;" xml:space="preserve">
<style type="text/css">
	.st0{fill:#cc0066;}
</style>
<g>
	<path class="st0" d="M70.7,201v-6.2c0-2-1.7-3.7-3.7-3.7s-3.7,1.7-3.7,3.7v6.2c0,2,1.7,3.7,3.7,3.7S70.7,203,70.7,201L70.7,201z"/>
	<path class="st0" d="M79.4,194.7v6.2c0,2,1.7,3.7,3.7,3.7s3.7-1.7,3.7-3.7v-6.2c0-2-1.7-3.7-3.7-3.7S79.4,192.7,79.4,194.7
		L79.4,194.7z"/>
	<path class="st0" d="M56.5,218.5c-1-1.8-3.3-2.4-5.1-1.4s-2.4,3.3-1.4,5.1c3.7,6.5,10.1,10.1,18.4,10.6c0.1,0,0.1,0,0.2,0
		c2,0,3.6-1.5,3.7-3.5s-1.5-3.8-3.5-3.9C63.1,225,59,222.7,56.5,218.5L56.5,218.5z"/>
	<path class="st0" d="M116.6,142.4H56.5c-20.1,0-36.4,16.3-36.4,36.4c0,2,1.7,3.7,3.7,3.7s3.7-1.7,3.7-3.7c0-16,13-29,29-29h56.2
		c-1.8,14.2-14,25.3-28.7,25.3H49.9c-2,0-3.7,1.7-3.7,3.7v3c0,4.7-3.5,8.6-8.1,9.3c-4.4-3.5-10.3-4.4-15.5-2.4
		c-2.1,0.8-3.9,2-5.5,3.6c-3,3-4.6,7-4.6,11.2s1.6,8.2,4.6,11.2c1.2,1.2,2.4,2.1,3.9,2.8c3.7,19.3,20.7,33.6,40.6,33.6
		c22.8,0,41.3-18.5,41.3-41.3v-21.1c0-2-1.7-3.7-3.7-3.7s-3.7,1.7-3.7,3.7v21.1c0,18.7-15.2,33.9-33.9,33.9
		c-16.9,0-31.3-12.6-33.6-29.2c-0.2-1.4-1.1-2.5-2.4-3c-1.2-0.4-2.3-1.1-3.2-2c-1.6-1.6-2.5-3.7-2.5-5.9s0.9-4.4,2.5-6
		c0.9-0.9,1.8-1.5,2.9-1.9c3.1-1.2,6.6-0.4,9,1.9c0.8,0.8,1.8,1.1,2.8,1.1c8.9-0.1,16.2-7.2,16.6-16.1H84
		c20.1,0,36.4-16.3,36.4-36.4C120.3,144.1,118.7,142.4,116.6,142.4L116.6,142.4z"/>
	<path class="st0" d="M149.2,100.5c-2,0-3.7,1.7-3.7,3.7c0,3.8-3.1,6.9-6.9,6.9h-23.3c-1.1,0-2.1,0.5-2.8,1.2l-10.7,12v-9.5
		c0-2-1.7-3.7-3.7-3.7H45.8c-3.8,0-6.9-3.1-6.9-6.9V57.3c0-3.8,3.1-6.9,6.9-6.9h70.8c2,0,3.7-1.7,3.7-3.7s-1.7-3.7-3.7-3.7H45.8
		c-7.9,0-14.4,6.4-14.4,14.4v46.8c0,7.9,6.4,14.4,14.4,14.4h48.6v15.6c0,1.5,0.9,2.9,2.4,3.5c0.4,0.2,0.9,0.2,1.3,0.2
		c1,0,2-0.4,2.8-1.2l16.1-18h21.6c7.9,0,14.4-6.4,14.4-14.4C152.9,102.1,151.3,100.5,149.2,100.5L149.2,100.5z"/>
	<path class="st0" d="M139.9,94.8h21.6l16.1,18c0.7,0.8,1.7,1.2,2.8,1.2c0.4,0,0.9-0.1,1.3-0.2c1.4-0.5,2.4-1.9,2.4-3.5V94.8h48.6
		c7.9,0,14.4-6.4,14.4-14.4V33.6c0-7.9-6.4-14.4-14.4-14.4h-8.4c-2,0-3.7,1.7-3.7,3.7s1.7,3.7,3.7,3.7h8.4c3.8,0,6.9,3.1,6.9,6.9
		v46.8c0,3.8-3.1,6.9-6.9,6.9h-52.3c-2,0-3.7,1.7-3.7,3.7v9.5l-10.7-12c-0.7-0.8-1.7-1.2-2.8-1.2h-23.3c-3.8,0-6.9-3.1-6.9-6.9V33.6
		c0-3.8,3.1-6.9,6.9-6.9h72.5c2,0,3.7-1.7,3.7-3.7s-1.7-3.7-3.7-3.7h-72.5c-7.9,0-14.4,6.4-14.4,14.4v46.8
		C125.6,88.4,132,94.8,139.9,94.8L139.9,94.8z"/>
	<path class="st0" d="M196.1,188.8V183c0-2-1.7-3.7-3.7-3.7s-3.7,1.7-3.7,3.7v5.7c0,2,1.7,3.7,3.7,3.7
		C194.5,192.5,196.1,190.8,196.1,188.8L196.1,188.8z"/>
	<path class="st0" d="M181.2,188.8V183c0-2-1.7-3.7-3.7-3.7s-3.7,1.7-3.7,3.7v5.7c0,2,1.7,3.7,3.7,3.7
		C179.6,192.5,181.2,190.8,181.2,188.8L181.2,188.8z"/>
	<g>
		<path class="st0" d="M187.2,214.9c0.1,2,1.7,3.5,3.7,3.5c0.1,0,0.1,0,0.2,0c7.8-0.4,13.7-3.8,17.2-9.9c1-1.8,0.4-4-1.4-5.1
			c-1.8-1-4-0.4-5.1,1.4c-2.2,3.8-5.9,5.9-11.2,6.2C188.6,211.1,187.1,212.8,187.2,214.9L187.2,214.9z"/>
		<path class="st0" d="M258,183.1c-2.3-16.6-8.1-28.6-17.5-36.4c-1.6-1.3-3.9-1.1-5.2,0.5s-1.1,3.9,0.5,5.2
			c7.9,6.6,12.8,17,14.9,31.8c3.5,24.7-4.1,49.6-12.9,65.9c-3.7-2.3-10-7.4-12.8-16.4c-0.6-2-2.7-3-4.6-2.4c-2,0.6-3,2.7-2.4,4.6
			c5.1,16.3,19.3,22.3,19.9,22.5c0.5,0.2,0.9,0.3,1.4,0.3c1.3,0,2.5-0.7,3.2-1.8C252.5,239.7,262,211.3,258,183.1L258,183.1z"/>
	</g>
	<path class="st0" d="M235.2,204.2c1.3-0.7,2.5-1.6,3.5-2.6c2.8-2.8,4.4-6.5,4.4-10.5s-1.5-7.7-4.4-10.5c-1.5-1.5-3.2-2.6-5.2-3.4
		c-3.1-1.2-6.5-1.3-9.5-0.4v-3.7c0-1.2-0.6-2.3-1.6-3s-2.2-0.9-3.4-0.5c-0.2,0.1-19.2,6.6-31.8-9.8c-0.6-0.8-1.6-1.4-2.7-1.4
		c-1.1-0.1-2.1,0.3-2.9,1.1c-3,3-10.4,4.2-15.8,4.4c-1.3-7.8,1.5-12.6,2.9-14.4c3.8-5,11.1-7.6,21.7-7.6c12.1,0,24.7,0.3,35.2,4.4
		c1.9,0.7,4.1-0.2,4.8-2.1c0.7-1.9-0.2-4.1-2.1-4.8c-11.6-4.6-25.1-4.9-37.9-4.9c-13,0-22.2,3.5-27.5,10.5
		c-6.6,8.6-4.7,19.4-3.5,23.6c0.4,1.6,1.8,2.7,3.4,2.7c1.5,0.1,13.3,0.3,21-4.2c7.9,8.5,17.1,10.8,23.8,11.2
		c3.5,0.2,6.7-0.1,9.1-0.5v5.4c0,1.5,0.9,2.9,2.3,3.4c1.4,0.6,3,0.2,4-0.8c2.1-2.1,5.2-2.7,8-1.7c1,0.4,1.8,0.9,2.6,1.7
		c1.4,1.4,2.2,3.3,2.2,5.3s-0.8,3.9-2.2,5.3c-0.8,0.8-1.8,1.4-2.8,1.8c-1.3,0.5-2.3,1.6-2.4,3c-2.1,15.2-15.3,26.7-30.7,26.7
		c-17.1,0-31-13.9-31-31v-16.7c0-2-1.7-3.7-3.7-3.7s-3.7,1.7-3.7,3.7v16.7c0,21.2,17.2,38.4,38.4,38.4
		C215.9,235.2,231.7,222,235.2,204.2L235.2,204.2z"/>
</g>
</svg>
