<?xml version="1.0" encoding="utf-8"?>
<!-- Generator: Adobe Illustrator 21.0.0, SVG Export Plug-In . SVG Version: 6.00 Build 0)  -->
<svg version="1.1" id="Layer_2" xmlns="http://www.w3.org/2000/svg" xmlns:xlink="http://www.w3.org/1999/xlink" x="0px" y="0px"
	 viewBox="0 0 278 278" style="enable-background:new 0 0 278 278;" xml:space="preserve">
<style type="text/css">
	.st0{fill:#1aae46;}
</style>
<g>
	<path class="st0" d="M228.4,182l-10.6-10.6c15.2-16.4,24.5-38.3,24.5-62.4c0-11.7-2.2-23.1-6.4-33.8c-0.7-1.9-2.8-2.8-4.7-2
		c-1.9,0.7-2.8,2.8-2,4.7c3.9,9.9,5.9,20.4,5.9,31.2c0,10.7-2,21-5.6,30.4c-5.7-2-9.4-6.5-11.7-13.8c-2.5-8.2-2.9-18.6-3.2-28.8
		c-0.5-14.5-0.9-28.2-7.9-35.2c-3-3-8.3-5.7-16.5-1.2c-4.9,2.7-9.9,7.3-15.2,12.2c-12.5,11.5-21.2,18.5-28,11.8
		c-12.6-12.6-5.5-30.3,1.3-47.4c1.8-4.4,3.4-8.7,4.8-12.7c27.9,0.9,53.4,15.2,68.6,38.9c1.1,1.7,3.3,2.2,5,1.1s2.2-3.3,1.1-5
		c-17-26.4-45.9-42.2-77.3-42.2c-24,0-46,9.3-62.4,24.5L77.3,30.9l0,0l0,0L66.7,20.3c-1.4-1.4-3.7-1.4-5.1,0c-1.4,1.4-1.4,3.7,0,5.1
		l8.1,8.1C50.4,54,39.8,80.7,39.8,109c0,29.5,11.5,57.2,32.3,78.1c18,17.9,40.9,28.9,65.7,31.6v15.9H98.5c-7.3,0-13.2,5.9-13.2,13.2
		S91.2,261,98.5,261h85.9c7.3,0,13.2-5.9,13.2-13.2s-5.9-13.2-13.2-13.2h-39.3v-15.4c1.7,0.1,3.4,0.1,5.2,0.1
		c28.3,0,55-10.6,75.5-29.8l8.1,8.1c0.7,0.7,1.6,1.1,2.6,1.1c0.9,0,1.9-0.4,2.6-1.1c1.4-1.4,1.4-3.7,0-5.1L228.4,182z M190.3,247.8
		c0,3.3-2.7,5.9-5.9,5.9H98.5c-3.3,0-5.9-2.7-5.9-5.9c0-3.3,2.7-5.9,5.9-5.9h85.9C187.7,241.9,190.3,244.6,190.3,247.8L190.3,247.8z
		 M133,62.2c-1.3,11.2,1.6,20.1,8.8,27.3c5.5,5.5,12.3,6.3,20.1,2.4c6.1-3.1,12.1-8.6,17.9-13.9c11.9-10.9,17.8-15.1,21.7-11.2
		c4.9,4.9,5.4,17.8,5.8,30.3c0.3,10.6,0.7,21.5,3.5,30.7c2.9,9.3,8.2,15.5,15.7,18.3c-6.4,13.2-16.2,24.4-28.2,32.7
		c-1.4-10.1-6.4-29.2-24.6-35.1c-12.6-4.1-23.9,2.9-33.8,9.1c-11.1,6.9-16.5,9.5-21.2,4.8c-5.7-5.7-4.8-12.3-2.8-22.5
		c0.3-1.6,0.6-3.2,0.9-4.9c0.3-2-1-3.8-3-4.2c-2-0.3-3.8,1-4.2,3c-0.3,1.6-0.6,3.2-0.9,4.7c-1.9,10-3.9,20.3,4.8,29
		c4.2,4.2,9.4,5.5,15.4,3.8c4.8-1.3,9.6-4.3,14.7-7.5c9-5.6,18.4-11.4,27.8-8.4c16.5,5.3,19.5,25.8,20,32.5
		c-12.2,6.8-26.2,10.7-41.1,10.7c-46.2,0-83.9-37.2-84.7-83.2c7-6.3,20.8-13.5,31.1-11.7c5,0.8,8.6,3.7,11,8.6
		c1.4,3,2.3,6.1,2.6,9.5c0.2,1.9,1.7,3.3,3.6,3.3c0.1,0,0.2,0,0.3,0c2-0.2,3.5-1.9,3.3-3.9c-0.4-4.3-1.5-8.2-3.3-11.9
		c-3.4-7-9-11.4-16.3-12.6c-10.8-1.8-23.3,3.4-32,9.4c0.6-6.7,2-13.1,4.1-19.2c12.5-0.7,25.9-6.3,36.5-15.4
		c12.1-10.4,19.1-24.1,19.9-38.7c6-1.8,12.3-2.9,18.8-3.3c-1.1,3.2-2.4,6.5-3.8,10C137.8,43.5,134,52.9,133,62.2z M118.9,30.3
		c-1.4,11.5-7.4,22.3-17.1,30.6c-8.4,7.2-18.9,12-28.8,13.4C82,54.3,98.5,38.4,118.9,30.3L118.9,30.3z M150.3,212.1
		c-26.4,0-52.9-10.1-73-30.2C57.8,162.5,47,136.5,47,109c0-26.4,9.8-51.2,27.7-70.4l8,8C67.6,63,58.3,84.9,58.3,109
		c0,50.7,41.2,91.9,91.9,91.9c24,0,46-9.3,62.4-24.5l8,8C200.9,202.9,175.6,212.1,150.3,212.1L150.3,212.1z"/>
</g>
</svg>
